<?xml version="1.0" encoding="UTF-8"?>
<mxfile host="app.diagrams.net" modified="2024-12-10T10:06:00.000Z" agent="Mozilla/5.0" version="21.6.8">
  <diagram name="Use Case Diagram" id="use-case">
    <mxGraphModel dx="1422" dy="791" grid="1" gridSize="10" guides="1" tooltips="1" connect="1" arrows="1" fold="1" page="1" pageScale="1" pageWidth="850" pageHeight="1100">
      <root>
        <mxCell id="0"/>
        <mxCell id="1" parent="0"/>
        <!-- Actors -->
        <mxCell id="2" value="Guest User" style="shape=umlActor;verticalLabelPosition=bottom;verticalAlign=top;html=1;" vertex="1" parent="1">
          <mxGeometry x="100" y="300" width="30" height="60" as="geometry"/>
        </mxCell>
        <mxCell id="3" value="Staff" style="shape=umlActor;verticalLabelPosition=bottom;verticalAlign=top;html=1;" vertex="1" parent="1">
          <mxGeometry x="100" y="450" width="30" height="60" as="geometry"/>
        </mxCell>
        <mxCell id="4" value="Admin" style="shape=umlActor;verticalLabelPosition=bottom;verticalAlign=top;html=1;" vertex="1" parent="1">
          <mxGeometry x="100" y="600" width="30" height="60" as="geometry"/>
        </mxCell>
        <!-- Use Cases -->
        <mxCell id="5" value="Register" style="ellipse;whiteSpace=wrap;html=1;" vertex="1" parent="1">
          <mxGeometry x="300" y="200" width="140" height="70" as="geometry"/>
        </mxCell>
        <mxCell id="6" value="Login" style="ellipse;whiteSpace=wrap;html=1;" vertex="1" parent="1">
          <mxGeometry x="300" y="300" width="140" height="70" as="geometry"/>
        </mxCell>
        <mxCell id="7" value="Manage Rooms" style="ellipse;whiteSpace=wrap;html=1;" vertex="1" parent="1">
          <mxGeometry x="300" y="400" width="140" height="70" as="geometry"/>
        </mxCell>
        <mxCell id="8" value="Make Reservation" style="ellipse;whiteSpace=wrap;html=1;" vertex="1" parent="1">
          <mxGeometry x="300" y="500" width="140" height="70" as="geometry"/>
        </mxCell>
        <mxCell id="9" value="Handle Payments" style="ellipse;whiteSpace=wrap;html=1;" vertex="1" parent="1">
          <mxGeometry x="300" y="600" width="140" height="70" as="geometry"/>
        </mxCell>
        <!-- Connections -->
        <mxCell id="10" value="" style="endArrow=none;html=1;rounded=0;" edge="1" parent="1" source="2" target="5">
          <mxGeometry relative="1" as="geometry"/>
        </mxCell>
        <mxCell id="11" value="" style="endArrow=none;html=1;rounded=0;" edge="1" parent="1" source="2" target="6">
          <mxGeometry relative="1" as="geometry"/>
        </mxCell>
        <mxCell id="12" value="" style="endArrow=none;html=1;rounded=0;" edge="1" parent="1" source="3" target="6">
          <mxGeometry relative="1" as="geometry"/>
        </mxCell>
        <mxCell id="13" value="" style="endArrow=none;html=1;rounded=0;" edge="1" parent="1" source="3" target="8">
          <mxGeometry relative="1" as="geometry"/>
        </mxCell>
        <mxCell id="14" value="" style="endArrow=none;html=1;rounded=0;" edge="1" parent="1" source="4" target="7">
          <mxGeometry relative="1" as="geometry"/>
        </mxCell>
        <mxCell id="15" value="" style="endArrow=none;html=1;rounded=0;" edge="1" parent="1" source="4" target="9">
          <mxGeometry relative="1" as="geometry"/>
        </mxCell>
      </root>
    </mxGraphModel>
  </diagram>
  <diagram name="Sequence Diagram" id="sequence">
    <mxGraphModel dx="1422" dy="791" grid="1" gridSize="10" guides="1" tooltips="1" connect="1" arrows="1" fold="1" page="1" pageScale="1" pageWidth="850" pageHeight="1100">
      <root>
        <mxCell id="0"/>
        <mxCell id="1" parent="0"/>
        <!-- Lifelines -->
        <mxCell id="2" value="Guest" style="shape=umlLifeline;perimeter=lifelinePerimeter;container=1;collapsible=0;recursiveResize=0;rounded=0;shadow=0;strokeWidth=1;" vertex="1" parent="1">
          <mxGeometry x="100" y="80" width="100" height="600" as="geometry"/>
        </mxCell>
        <mxCell id="3" value="Auth System" style="shape=umlLifeline;perimeter=lifelinePerimeter;container=1;collapsible=0;recursiveResize=0;rounded=0;shadow=0;strokeWidth=1;" vertex="1" parent="1">
          <mxGeometry x="250" y="80" width="100" height="600" as="geometry"/>
        </mxCell>
        <mxCell id="4" value="Room System" style="shape=umlLifeline;perimeter=lifelinePerimeter;container=1;collapsible=0;recursiveResize=0;rounded=0;shadow=0;strokeWidth=1;" vertex="1" parent="1">
          <mxGeometry x="400" y="80" width="100" height="600" as="geometry"/>
        </mxCell>
        <mxCell id="5" value="Reservation" style="shape=umlLifeline;perimeter=lifelinePerimeter;container=1;collapsible=0;recursiveResize=0;rounded=0;shadow=0;strokeWidth=1;" vertex="1" parent="1">
          <mxGeometry x="550" y="80" width="100" height="600" as="geometry"/>
        </mxCell>
        <!-- Messages -->
        <mxCell id="6" value="Login Request" style="endArrow=block;endFill=1;html=1;edgeStyle=orthogonalEdgeStyle;align=left;verticalAlign=top;" edge="1" parent="1" source="2" target="3">
          <mxGeometry x="-1" relative="1" as="geometry">
            <mxPoint x="150" y="160" as="sourcePoint"/>
            <mxPoint x="300" y="160" as="targetPoint"/>
            <Array as="points">
              <mxPoint x="220" y="160"/>
              <mxPoint x="220" y="160"/>
            </Array>
          </mxGeometry>
        </mxCell>
        <mxCell id="7" value="Auth Token" style="endArrow=open;endFill=1;html=1;edgeStyle=orthogonalEdgeStyle;align=left;verticalAlign=top;dashed=1;" edge="1" parent="1" source="3" target="2">
          <mxGeometry x="-1" relative="1" as="geometry">
            <mxPoint x="300" y="200" as="sourcePoint"/>
            <mxPoint x="150" y="200" as="targetPoint"/>
            <Array as="points">
              <mxPoint x="220" y="200"/>
              <mxPoint x="220" y="200"/>
            </Array>
          </mxGeometry>
        </mxCell>
        <mxCell id="8" value="Check Room Availability" style="endArrow=block;endFill=1;html=1;edgeStyle=orthogonalEdgeStyle;align=left;verticalAlign=top;" edge="1" parent="1" source="2" target="4">
          <mxGeometry x="-1" relative="1" as="geometry">
            <mxPoint x="150" y="240" as="sourcePoint"/>
            <mxPoint x="450" y="240" as="targetPoint"/>
            <Array as="points">
              <mxPoint x="300" y="240"/>
              <mxPoint x="300" y="240"/>
            </Array>
          </mxGeometry>
        </mxCell>
        <mxCell id="9" value="Make Reservation" style="endArrow=block;endFill=1;html=1;edgeStyle=orthogonalEdgeStyle;align=left;verticalAlign=top;" edge="1" parent="1" source="2" target="5">
          <mxGeometry x="-1" relative="1" as="geometry">
            <mxPoint x="150" y="320" as="sourcePoint"/>
            <mxPoint x="600" y="320" as="targetPoint"/>
            <Array as="points">
              <mxPoint x="380" y="320"/>
              <mxPoint x="380" y="320"/>
            </Array>
          </mxGeometry>
        </mxCell>
      </root>
    </mxGraphModel>
  </diagram>
</mxfile>
